# xmcd CD database file
#
# Track frame offsets:
#	150
#	13563
#	30341
#	43616
#	51347
#	59669
#	71945
#	86338
#	92757
#	109245
#	119650
#	129808
#	137175
#	149055
#	155761
#	166849
#
# Disc length: 2398 seconds
#
# Revision: 0
# Processed by: cddbd v1.5.2PL0 Copyright (c) Steve Scherf et al.
# Submitted via: CDex 1.70beta2
#
DISCID=e8095c10
DTITLE=algia mae hinton - honey babe
DYEAR=1999
DGENRE=Blues
TTITLE0=honey bebe
TTITLE1=snap your fingers
TTITLE2=out of jail
TTITLE3=when you kill the chicken save me the head
TTITLE4=whatcha gonna do when your good girl turns you down
TTITLE5=you dont have to go
TTITLE6=i ain't the one you love
TTITLE7=cook cornbread for your husband
TTITLE8=my babys gone
TTITLE9=if you want to go to heaven
TTITLE10=going down this road
TTITLE11=buck dance
TTITLE12=shine on
TTITLE13=careless love
TTITLE14=i want jesus to walk with me
TTITLE15=lima beans
EXTD=YEAR: 1999
EXTT0=
EXTT1=
EXTT2=
EXTT3=
EXTT4=
EXTT5=
EXTT6=
EXTT7=
EXTT8=
EXTT9=
EXTT10=
EXTT11=
EXTT12=
EXTT13=
EXTT14=
EXTT15=
PLAYORDER=
